<mxfile host="app.diagrams.net" agent="Mozilla/5.0 (Windows NT 10.0; Win64; x64; rv:144.0) Gecko/20100101 Firefox/144.0" version="28.2.8">
  <diagram name="Page-1" id="b5YMW3NgXhJnWHoVHeZu">
    <mxGraphModel dx="1426" dy="779" grid="1" gridSize="10" guides="1" tooltips="1" connect="1" arrows="1" fold="1" page="1" pageScale="1" pageWidth="827" pageHeight="1169" math="0" shadow="0">
      <root>
        <mxCell id="0" />
        <mxCell id="1" parent="0" />
        <mxCell id="PhmCjKQ_vhttGhS1DYgp-1" value="cllient" style="shape=umlFrame;whiteSpace=wrap;html=1;pointerEvents=0;labelBackgroundColor=none;fillColor=#FAE5C7;strokeColor=#0F8B8D;fontColor=#143642;" vertex="1" parent="1">
          <mxGeometry x="208" y="570" width="210" height="150" as="geometry" />
        </mxCell>
        <mxCell id="PhmCjKQ_vhttGhS1DYgp-2" value="Driver process" style="shape=module;align=left;spacingLeft=20;align=center;verticalAlign=top;whiteSpace=wrap;html=1;labelBackgroundColor=none;fillColor=#FAE5C7;strokeColor=#0F8B8D;fontColor=#143642;" vertex="1" parent="1">
          <mxGeometry x="220" y="612" width="160" height="90" as="geometry" />
        </mxCell>
        <mxCell id="PhmCjKQ_vhttGhS1DYgp-3" value="cluster" style="shape=umlFrame;whiteSpace=wrap;html=1;pointerEvents=0;width=110;height=25;labelBackgroundColor=none;fillColor=#FAE5C7;strokeColor=#0F8B8D;fontColor=#143642;" vertex="1" parent="1">
          <mxGeometry x="430" y="115" width="650" height="525" as="geometry" />
        </mxCell>
        <mxCell id="PhmCjKQ_vhttGhS1DYgp-4" value="&lt;p style=&quot;margin:0px;margin-top:6px;text-align:center;&quot;&gt;&lt;b&gt;Head&lt;/b&gt;&lt;/p&gt;&lt;hr size=&quot;1&quot; style=&quot;border-style:solid;&quot;&gt;" style="align=left;overflow=fill;html=1;dropTarget=0;whiteSpace=wrap;labelBackgroundColor=none;fillColor=#FAE5C7;strokeColor=#0F8B8D;fontColor=#143642;" vertex="1" parent="1">
          <mxGeometry x="450" y="175" width="290" height="455" as="geometry" />
        </mxCell>
        <mxCell id="PhmCjKQ_vhttGhS1DYgp-5" value="" style="shape=component;jettyWidth=8;jettyHeight=4;labelBackgroundColor=none;fillColor=#FAE5C7;strokeColor=#0F8B8D;fontColor=#143642;" vertex="1" parent="PhmCjKQ_vhttGhS1DYgp-4">
          <mxGeometry x="1" width="20" height="20" relative="1" as="geometry">
            <mxPoint x="-24" y="4" as="offset" />
          </mxGeometry>
        </mxCell>
        <mxCell id="PhmCjKQ_vhttGhS1DYgp-8" value="" style="rounded=0;whiteSpace=wrap;html=1;labelBackgroundColor=none;fillColor=#FAE5C7;strokeColor=#0F8B8D;fontColor=#143642;" vertex="1" parent="1">
          <mxGeometry x="770" y="167.5" width="300" height="412.5" as="geometry" />
        </mxCell>
        <mxCell id="PhmCjKQ_vhttGhS1DYgp-9" value="&lt;p style=&quot;margin:0px;margin-top:6px;text-align:center;&quot;&gt;&lt;b&gt;workers&lt;/b&gt;&lt;/p&gt;&lt;hr size=&quot;1&quot; style=&quot;border-style:solid;&quot;&gt;" style="align=left;overflow=fill;html=1;dropTarget=0;whiteSpace=wrap;labelBackgroundColor=none;fillColor=#FAE5C7;strokeColor=#0F8B8D;fontColor=#143642;" vertex="1" parent="1">
          <mxGeometry x="760" y="177.5" width="300" height="422.5" as="geometry" />
        </mxCell>
        <mxCell id="PhmCjKQ_vhttGhS1DYgp-10" value="" style="shape=component;jettyWidth=8;jettyHeight=4;labelBackgroundColor=none;fillColor=#FAE5C7;strokeColor=#0F8B8D;fontColor=#143642;" vertex="1" parent="PhmCjKQ_vhttGhS1DYgp-9">
          <mxGeometry x="1" width="20" height="20" relative="1" as="geometry">
            <mxPoint x="-24" y="4" as="offset" />
          </mxGeometry>
        </mxCell>
        <mxCell id="PhmCjKQ_vhttGhS1DYgp-11" value="&lt;div&gt;Controller&lt;/div&gt;&lt;div align=&quot;left&quot;&gt;Task Sheduler&lt;/div&gt;&lt;div align=&quot;left&quot;&gt;Object Manager&lt;/div&gt;&lt;div align=&quot;left&quot;&gt;Node Manager&lt;/div&gt;" style="shape=module;align=left;spacingLeft=20;align=center;verticalAlign=top;whiteSpace=wrap;html=1;labelBackgroundColor=none;fillColor=#FAE5C7;strokeColor=#0F8B8D;fontColor=#143642;" vertex="1" parent="1">
          <mxGeometry x="460" y="220" width="270" height="80" as="geometry" />
        </mxCell>
        <mxCell id="PhmCjKQ_vhttGhS1DYgp-12" value="HTTP proxy" style="shape=module;align=left;spacingLeft=20;align=center;verticalAlign=top;whiteSpace=wrap;html=1;labelBackgroundColor=none;fillColor=#FAE5C7;strokeColor=#0F8B8D;fontColor=#143642;" vertex="1" parent="1">
          <mxGeometry x="460" y="574.5" width="270" height="47.5" as="geometry" />
        </mxCell>
        <mxCell id="PhmCjKQ_vhttGhS1DYgp-13" value="&lt;div&gt;services&lt;/div&gt;&lt;div align=&quot;left&quot;&gt;Dashboard&lt;/div&gt;&lt;div align=&quot;left&quot;&gt;Metriques&lt;/div&gt;&lt;div align=&quot;left&quot;&gt;Serveur d&#39;API&lt;/div&gt;" style="shape=module;align=left;spacingLeft=20;align=center;verticalAlign=top;whiteSpace=wrap;html=1;labelBackgroundColor=none;fillColor=#FAE5C7;strokeColor=#0F8B8D;fontColor=#143642;" vertex="1" parent="1">
          <mxGeometry x="460" y="373" width="270" height="68" as="geometry" />
        </mxCell>
        <mxCell id="PhmCjKQ_vhttGhS1DYgp-20" value="" style="html=1;rounded=0;labelBackgroundColor=none;fillColor=#FAE5C7;strokeColor=#0F8B8D;fontColor=#143642;" vertex="1" parent="1">
          <mxGeometry x="490" y="611" width="30" height="30" as="geometry" />
        </mxCell>
        <mxCell id="PhmCjKQ_vhttGhS1DYgp-21" value="" style="endArrow=none;html=1;rounded=0;align=center;verticalAlign=top;endFill=0;labelBackgroundColor=none;endSize=2;strokeColor=#A8201A;fontColor=default;" edge="1" source="PhmCjKQ_vhttGhS1DYgp-20" target="PhmCjKQ_vhttGhS1DYgp-22" parent="1">
          <mxGeometry relative="1" as="geometry" />
        </mxCell>
        <mxCell id="PhmCjKQ_vhttGhS1DYgp-22" value="" style="ellipse;html=1;fontSize=11;align=center;fillColor=none;points=[];aspect=fixed;resizable=0;verticalAlign=bottom;labelPosition=center;verticalLabelPosition=top;flipH=1;labelBackgroundColor=none;strokeColor=#0F8B8D;fontColor=#143642;" vertex="1" parent="1">
          <mxGeometry x="501" y="653" width="8" height="8" as="geometry" />
        </mxCell>
        <mxCell id="PhmCjKQ_vhttGhS1DYgp-23" value="" style="html=1;rounded=0;labelBackgroundColor=none;fillColor=#FAE5C7;strokeColor=#0F8B8D;fontColor=#143642;" vertex="1" parent="1">
          <mxGeometry x="368" y="643" width="30" height="30" as="geometry" />
        </mxCell>
        <mxCell id="PhmCjKQ_vhttGhS1DYgp-24" value="" style="endArrow=none;html=1;rounded=0;align=center;verticalAlign=top;endFill=0;labelBackgroundColor=none;endSize=2;strokeColor=#A8201A;fontColor=default;" edge="1" source="PhmCjKQ_vhttGhS1DYgp-23" target="PhmCjKQ_vhttGhS1DYgp-25" parent="1">
          <mxGeometry relative="1" as="geometry" />
        </mxCell>
        <mxCell id="PhmCjKQ_vhttGhS1DYgp-25" value="" style="shape=requiredInterface;html=1;fontSize=11;align=center;fillColor=none;points=[];aspect=fixed;resizable=0;verticalAlign=bottom;labelPosition=center;verticalLabelPosition=top;flipH=1;labelBackgroundColor=none;strokeColor=#0F8B8D;fontColor=#143642;" vertex="1" parent="1">
          <mxGeometry x="496" y="653" width="5" height="10" as="geometry" />
        </mxCell>
        <mxCell id="PhmCjKQ_vhttGhS1DYgp-26" value="" style="html=1;rounded=0;labelBackgroundColor=none;fillColor=#FAE5C7;strokeColor=#0F8B8D;fontColor=#143642;" vertex="1" parent="1">
          <mxGeometry x="520" y="554" width="30" height="30" as="geometry" />
        </mxCell>
        <mxCell id="PhmCjKQ_vhttGhS1DYgp-27" value="" style="endArrow=none;html=1;rounded=0;align=center;verticalAlign=top;endFill=0;labelBackgroundColor=none;endSize=2;strokeColor=#A8201A;fontColor=default;" edge="1" source="PhmCjKQ_vhttGhS1DYgp-26" target="PhmCjKQ_vhttGhS1DYgp-28" parent="1">
          <mxGeometry relative="1" as="geometry" />
        </mxCell>
        <mxCell id="PhmCjKQ_vhttGhS1DYgp-28" value="" style="shape=requiredInterface;html=1;fontSize=11;align=center;fillColor=none;points=[];aspect=fixed;resizable=0;verticalAlign=bottom;labelPosition=center;verticalLabelPosition=top;flipH=1;rotation=-90;labelBackgroundColor=none;strokeColor=#0F8B8D;fontColor=#143642;" vertex="1" parent="1">
          <mxGeometry x="493" y="456" width="5" height="10" as="geometry" />
        </mxCell>
        <mxCell id="PhmCjKQ_vhttGhS1DYgp-29" value="" style="html=1;rounded=0;labelBackgroundColor=none;fillColor=#FAE5C7;strokeColor=#0F8B8D;fontColor=#143642;" vertex="1" parent="1">
          <mxGeometry x="520" y="437" width="30" height="30" as="geometry" />
        </mxCell>
        <mxCell id="PhmCjKQ_vhttGhS1DYgp-30" value="" style="endArrow=none;html=1;rounded=0;align=center;verticalAlign=top;endFill=0;labelBackgroundColor=none;endSize=2;strokeColor=#A8201A;fontColor=default;" edge="1" source="PhmCjKQ_vhttGhS1DYgp-50" target="PhmCjKQ_vhttGhS1DYgp-31" parent="1">
          <mxGeometry relative="1" as="geometry" />
        </mxCell>
        <mxCell id="PhmCjKQ_vhttGhS1DYgp-31" value="" style="ellipse;html=1;fontSize=11;align=center;fillColor=none;points=[];aspect=fixed;resizable=0;verticalAlign=bottom;labelPosition=center;verticalLabelPosition=top;flipH=1;labelBackgroundColor=none;strokeColor=#0F8B8D;fontColor=#143642;" vertex="1" parent="1">
          <mxGeometry x="490" y="448" width="8" height="8" as="geometry" />
        </mxCell>
        <mxCell id="PhmCjKQ_vhttGhS1DYgp-32" value="" style="html=1;rounded=0;labelBackgroundColor=none;fillColor=#FAE5C7;strokeColor=#0F8B8D;fontColor=#143642;" vertex="1" parent="1">
          <mxGeometry x="501" y="290" width="30" height="30" as="geometry" />
        </mxCell>
        <mxCell id="PhmCjKQ_vhttGhS1DYgp-33" value="" style="endArrow=none;html=1;rounded=0;align=center;verticalAlign=top;endFill=0;labelBackgroundColor=none;endSize=2;strokeColor=#A8201A;fontColor=default;" edge="1" source="PhmCjKQ_vhttGhS1DYgp-32" target="PhmCjKQ_vhttGhS1DYgp-34" parent="1">
          <mxGeometry relative="1" as="geometry" />
        </mxCell>
        <mxCell id="PhmCjKQ_vhttGhS1DYgp-34" value="" style="shape=requiredInterface;html=1;fontSize=11;align=center;fillColor=none;points=[];aspect=fixed;resizable=0;verticalAlign=bottom;labelPosition=center;verticalLabelPosition=top;flipH=1;labelBackgroundColor=none;strokeColor=#0F8B8D;fontColor=#143642;" vertex="1" parent="1">
          <mxGeometry x="488" y="441" width="5" height="10" as="geometry" />
        </mxCell>
        <mxCell id="PhmCjKQ_vhttGhS1DYgp-35" value="Task1 SL" style="shape=module;align=left;spacingLeft=20;align=center;verticalAlign=top;whiteSpace=wrap;html=1;labelBackgroundColor=none;fillColor=#FAE5C7;strokeColor=#0F8B8D;fontColor=#143642;" vertex="1" parent="1">
          <mxGeometry x="770" y="220" width="270" height="47.5" as="geometry" />
        </mxCell>
        <mxCell id="PhmCjKQ_vhttGhS1DYgp-36" value="Task2 SF" style="shape=module;align=left;spacingLeft=20;align=center;verticalAlign=top;whiteSpace=wrap;html=1;labelBackgroundColor=none;fillColor=#FAE5C7;strokeColor=#0F8B8D;fontColor=#143642;" vertex="1" parent="1">
          <mxGeometry x="775" y="313.25" width="270" height="47.5" as="geometry" />
        </mxCell>
        <mxCell id="PhmCjKQ_vhttGhS1DYgp-37" value="" style="sketch=0;aspect=fixed;pointerEvents=1;shadow=0;dashed=0;html=1;strokeColor=#006EAF;labelPosition=center;verticalLabelPosition=bottom;verticalAlign=top;align=center;fillColor=#1ba1e2;shape=mxgraph.azure.queue_generic;labelBackgroundColor=none;fontColor=#ffffff;" vertex="1" parent="1">
          <mxGeometry x="775" y="267.5" width="100" height="30" as="geometry" />
        </mxCell>
        <mxCell id="PhmCjKQ_vhttGhS1DYgp-38" value="" style="sketch=0;aspect=fixed;pointerEvents=1;shadow=0;dashed=0;html=1;labelPosition=center;verticalLabelPosition=bottom;verticalAlign=top;align=center;shape=mxgraph.azure.queue_generic;labelBackgroundColor=none;fillColor=#1ba1e2;fontColor=#ffffff;strokeColor=#006EAF;" vertex="1" parent="1">
          <mxGeometry x="780" y="360.75" width="100" height="30" as="geometry" />
        </mxCell>
        <mxCell id="PhmCjKQ_vhttGhS1DYgp-39" value="Object Store" style="shape=datastore;whiteSpace=wrap;html=1;labelBackgroundColor=none;fillColor=#FAE5C7;strokeColor=#0F8B8D;fontColor=#143642;" vertex="1" parent="1">
          <mxGeometry x="884" y="406" width="135" height="60" as="geometry" />
        </mxCell>
        <mxCell id="PhmCjKQ_vhttGhS1DYgp-40" value="Local scheduler (Agent)" style="shape=module;align=left;spacingLeft=20;align=center;verticalAlign=top;whiteSpace=wrap;html=1;labelBackgroundColor=none;fillColor=#FAE5C7;strokeColor=#0F8B8D;fontColor=#143642;" vertex="1" parent="1">
          <mxGeometry x="775" y="529.5" width="270" height="47.5" as="geometry" />
        </mxCell>
        <mxCell id="PhmCjKQ_vhttGhS1DYgp-41" value="Metadata Store" style="shape=datastore;whiteSpace=wrap;html=1;labelBackgroundColor=none;fillColor=#FAE5C7;strokeColor=#0F8B8D;fontColor=#143642;" vertex="1" parent="1">
          <mxGeometry x="595" y="505" width="135" height="60" as="geometry" />
        </mxCell>
        <mxCell id="PhmCjKQ_vhttGhS1DYgp-42" value="" style="html=1;rounded=0;labelBackgroundColor=none;fillColor=#FAE5C7;strokeColor=#0F8B8D;fontColor=#143642;" vertex="1" parent="1">
          <mxGeometry x="650" y="499.5" width="30" height="30" as="geometry" />
        </mxCell>
        <mxCell id="PhmCjKQ_vhttGhS1DYgp-43" value="" style="endArrow=none;html=1;rounded=0;align=center;verticalAlign=top;endFill=0;labelBackgroundColor=none;endSize=2;strokeColor=#A8201A;fontColor=default;" edge="1" source="PhmCjKQ_vhttGhS1DYgp-42" target="PhmCjKQ_vhttGhS1DYgp-44" parent="1">
          <mxGeometry relative="1" as="geometry" />
        </mxCell>
        <mxCell id="PhmCjKQ_vhttGhS1DYgp-44" value="" style="ellipse;html=1;fontSize=11;align=center;fillColor=none;points=[];aspect=fixed;resizable=0;verticalAlign=bottom;labelPosition=center;verticalLabelPosition=top;flipH=1;labelBackgroundColor=none;strokeColor=#0F8B8D;fontColor=#143642;" vertex="1" parent="1">
          <mxGeometry x="661" y="480" width="8" height="8" as="geometry" />
        </mxCell>
        <mxCell id="PhmCjKQ_vhttGhS1DYgp-45" value="" style="html=1;rounded=0;labelBackgroundColor=none;fillColor=#FAE5C7;strokeColor=#0F8B8D;fontColor=#143642;" vertex="1" parent="1">
          <mxGeometry x="650" y="431" width="30" height="30" as="geometry" />
        </mxCell>
        <mxCell id="PhmCjKQ_vhttGhS1DYgp-46" value="" style="endArrow=none;html=1;rounded=0;align=center;verticalAlign=top;endFill=0;labelBackgroundColor=none;endSize=2;strokeColor=#A8201A;fontColor=default;" edge="1" source="PhmCjKQ_vhttGhS1DYgp-45" target="PhmCjKQ_vhttGhS1DYgp-47" parent="1">
          <mxGeometry relative="1" as="geometry" />
        </mxCell>
        <mxCell id="PhmCjKQ_vhttGhS1DYgp-47" value="" style="shape=requiredInterface;html=1;fontSize=11;align=center;fillColor=none;points=[];aspect=fixed;resizable=0;verticalAlign=bottom;labelPosition=center;verticalLabelPosition=top;flipH=1;rotation=90;labelBackgroundColor=none;strokeColor=#0F8B8D;fontColor=#143642;" vertex="1" parent="1">
          <mxGeometry x="661" y="470" width="5" height="10" as="geometry" />
        </mxCell>
        <mxCell id="PhmCjKQ_vhttGhS1DYgp-48" value="" style="html=1;rounded=0;labelBackgroundColor=none;fillColor=#FAE5C7;strokeColor=#0F8B8D;fontColor=#143642;" vertex="1" parent="1">
          <mxGeometry x="810" y="520" width="30" height="30" as="geometry" />
        </mxCell>
        <mxCell id="PhmCjKQ_vhttGhS1DYgp-49" value="" style="endArrow=none;html=1;rounded=0;align=center;verticalAlign=top;endFill=0;labelBackgroundColor=none;endSize=2;strokeColor=#A8201A;fontColor=default;" edge="1" source="PhmCjKQ_vhttGhS1DYgp-48" target="PhmCjKQ_vhttGhS1DYgp-50" parent="1">
          <mxGeometry relative="1" as="geometry" />
        </mxCell>
        <mxCell id="PhmCjKQ_vhttGhS1DYgp-51" value="" style="endArrow=none;html=1;rounded=0;align=center;verticalAlign=top;endFill=0;labelBackgroundColor=none;endSize=2;strokeColor=#A8201A;fontColor=default;" edge="1" parent="1" source="PhmCjKQ_vhttGhS1DYgp-29" target="PhmCjKQ_vhttGhS1DYgp-50">
          <mxGeometry relative="1" as="geometry">
            <mxPoint x="520" y="452" as="sourcePoint" />
            <mxPoint x="498" y="452" as="targetPoint" />
          </mxGeometry>
        </mxCell>
        <mxCell id="PhmCjKQ_vhttGhS1DYgp-50" value="" style="shape=requiredInterface;html=1;fontSize=11;align=center;fillColor=none;points=[];aspect=fixed;resizable=0;verticalAlign=bottom;labelPosition=center;verticalLabelPosition=top;flipH=1;rotation=-165;labelBackgroundColor=none;strokeColor=#0F8B8D;fontColor=#143642;" vertex="1" parent="1">
          <mxGeometry x="498" y="447" width="5" height="10" as="geometry" />
        </mxCell>
        <mxCell id="PhmCjKQ_vhttGhS1DYgp-52" value="" style="html=1;rounded=0;labelBackgroundColor=none;fillColor=#FAE5C7;strokeColor=#0F8B8D;fontColor=#143642;" vertex="1" parent="1">
          <mxGeometry x="940" y="456" width="30" height="30" as="geometry" />
        </mxCell>
        <mxCell id="PhmCjKQ_vhttGhS1DYgp-53" value="" style="endArrow=none;html=1;rounded=0;align=center;verticalAlign=top;endFill=0;labelBackgroundColor=none;endSize=2;strokeColor=#A8201A;fontColor=default;" edge="1" source="PhmCjKQ_vhttGhS1DYgp-52" target="PhmCjKQ_vhttGhS1DYgp-54" parent="1">
          <mxGeometry relative="1" as="geometry" />
        </mxCell>
        <mxCell id="PhmCjKQ_vhttGhS1DYgp-54" value="" style="ellipse;html=1;fontSize=11;align=center;fillColor=none;points=[];aspect=fixed;resizable=0;verticalAlign=bottom;labelPosition=center;verticalLabelPosition=top;flipH=1;labelBackgroundColor=none;strokeColor=#0F8B8D;fontColor=#143642;" vertex="1" parent="1">
          <mxGeometry x="910" y="480" width="8" height="8" as="geometry" />
        </mxCell>
        <mxCell id="PhmCjKQ_vhttGhS1DYgp-55" value="" style="rounded=0;orthogonalLoop=1;jettySize=auto;html=1;endArrow=halfCircle;endFill=0;endSize=6;strokeWidth=1;sketch=0;fontSize=12;curved=1;entryX=0.375;entryY=0.375;entryDx=0;entryDy=0;entryPerimeter=0;labelBackgroundColor=none;strokeColor=#A8201A;fontColor=default;" edge="1" target="PhmCjKQ_vhttGhS1DYgp-54" parent="1" source="PhmCjKQ_vhttGhS1DYgp-48">
          <mxGeometry relative="1" as="geometry">
            <mxPoint x="415" y="425" as="sourcePoint" />
          </mxGeometry>
        </mxCell>
        <mxCell id="PhmCjKQ_vhttGhS1DYgp-56" value="" style="ellipse;whiteSpace=wrap;html=1;align=center;aspect=fixed;fillColor=none;strokeColor=none;resizable=0;perimeter=centerPerimeter;rotatable=0;allowArrows=0;points=[];outlineConnect=1;labelBackgroundColor=none;fontColor=#143642;" vertex="1" parent="1">
          <mxGeometry x="390" y="420" width="10" height="10" as="geometry" />
        </mxCell>
        <mxCell id="PhmCjKQ_vhttGhS1DYgp-57" value="" style="rounded=0;orthogonalLoop=1;jettySize=auto;html=1;endArrow=halfCircle;endFill=0;endSize=6;strokeWidth=1;sketch=0;fontSize=12;curved=1;exitX=0.25;exitY=0;exitDx=0;exitDy=0;entryX=0.625;entryY=1.188;entryDx=0;entryDy=0;entryPerimeter=0;labelBackgroundColor=none;strokeColor=#A8201A;fontColor=default;" edge="1" target="PhmCjKQ_vhttGhS1DYgp-67" parent="1" source="PhmCjKQ_vhttGhS1DYgp-48">
          <mxGeometry relative="1" as="geometry">
            <mxPoint x="415" y="425" as="sourcePoint" />
          </mxGeometry>
        </mxCell>
        <mxCell id="PhmCjKQ_vhttGhS1DYgp-58" value="" style="ellipse;whiteSpace=wrap;html=1;align=center;aspect=fixed;fillColor=none;strokeColor=none;resizable=0;perimeter=centerPerimeter;rotatable=0;allowArrows=0;points=[];outlineConnect=1;labelBackgroundColor=none;fontColor=#143642;" vertex="1" parent="1">
          <mxGeometry x="390" y="420" width="10" height="10" as="geometry" />
        </mxCell>
        <mxCell id="PhmCjKQ_vhttGhS1DYgp-62" value="" style="html=1;rounded=0;labelBackgroundColor=none;fillColor=#FAE5C7;strokeColor=#0F8B8D;fontColor=#143642;" vertex="1" parent="1">
          <mxGeometry x="875" y="270" width="30" height="30" as="geometry" />
        </mxCell>
        <mxCell id="PhmCjKQ_vhttGhS1DYgp-63" value="" style="endArrow=none;html=1;rounded=0;align=center;verticalAlign=top;endFill=0;labelBackgroundColor=none;endSize=2;strokeColor=#A8201A;fontColor=default;" edge="1" source="PhmCjKQ_vhttGhS1DYgp-62" target="PhmCjKQ_vhttGhS1DYgp-64" parent="1">
          <mxGeometry relative="1" as="geometry" />
        </mxCell>
        <mxCell id="PhmCjKQ_vhttGhS1DYgp-64" value="" style="ellipse;html=1;fontSize=11;align=center;fillColor=none;points=[];aspect=fixed;resizable=0;verticalAlign=bottom;labelPosition=center;verticalLabelPosition=top;flipH=1;labelBackgroundColor=none;strokeColor=#0F8B8D;fontColor=#143642;" vertex="1" parent="1">
          <mxGeometry x="927" y="281" width="8" height="8" as="geometry" />
        </mxCell>
        <mxCell id="PhmCjKQ_vhttGhS1DYgp-65" value="" style="html=1;rounded=0;labelBackgroundColor=none;fillColor=#FAE5C7;strokeColor=#0F8B8D;fontColor=#143642;" vertex="1" parent="1">
          <mxGeometry x="880" y="362.5" width="30" height="30" as="geometry" />
        </mxCell>
        <mxCell id="PhmCjKQ_vhttGhS1DYgp-66" value="" style="endArrow=none;html=1;rounded=0;align=center;verticalAlign=top;endFill=0;labelBackgroundColor=none;endSize=2;strokeColor=#A8201A;fontColor=default;" edge="1" source="PhmCjKQ_vhttGhS1DYgp-65" target="PhmCjKQ_vhttGhS1DYgp-67" parent="1">
          <mxGeometry relative="1" as="geometry" />
        </mxCell>
        <mxCell id="PhmCjKQ_vhttGhS1DYgp-67" value="" style="ellipse;html=1;fontSize=11;align=center;fillColor=none;points=[];aspect=fixed;resizable=0;verticalAlign=bottom;labelPosition=center;verticalLabelPosition=top;flipH=1;labelBackgroundColor=none;strokeColor=#0F8B8D;fontColor=#143642;" vertex="1" parent="1">
          <mxGeometry x="932" y="373.5" width="8" height="8" as="geometry" />
        </mxCell>
        <mxCell id="PhmCjKQ_vhttGhS1DYgp-68" value="" style="rounded=0;orthogonalLoop=1;jettySize=auto;html=1;endArrow=halfCircle;endFill=0;endSize=6;strokeWidth=1;sketch=0;fontSize=12;curved=1;exitX=0.25;exitY=0;exitDx=0;exitDy=0;entryX=1;entryY=1;entryDx=0;entryDy=0;entryPerimeter=0;labelBackgroundColor=none;strokeColor=#A8201A;fontColor=default;" edge="1" target="PhmCjKQ_vhttGhS1DYgp-64" parent="1" source="PhmCjKQ_vhttGhS1DYgp-48">
          <mxGeometry relative="1" as="geometry">
            <mxPoint x="415" y="425" as="sourcePoint" />
          </mxGeometry>
        </mxCell>
        <mxCell id="PhmCjKQ_vhttGhS1DYgp-69" value="" style="ellipse;whiteSpace=wrap;html=1;align=center;aspect=fixed;fillColor=none;strokeColor=none;resizable=0;perimeter=centerPerimeter;rotatable=0;allowArrows=0;points=[];outlineConnect=1;labelBackgroundColor=none;fontColor=#143642;" vertex="1" parent="1">
          <mxGeometry x="390" y="420" width="10" height="10" as="geometry" />
        </mxCell>
      </root>
    </mxGraphModel>
  </diagram>
</mxfile>
